<svg data-v-423bf9ae="" xmlns="http://www.w3.org/2000/svg" viewBox="0 0 252.09643047842894 164" class="iconAbove"><g data-v-423bf9ae="" id="423d5218-cdf0-4d53-9a2b-d752bbfdbcc9" fill="black" transform="matrix(4.382761273855356,0,0,4.382761273855356,2.3228627845330294,90.77494722250154)"><path d="M2.87 12.18L2.87 3.30L0.74 3.30C0.76 3.37 0.94 4.13 0.94 4.16L0.94 12.89C0.94 14.03 0.83 15.22-0.53 15.39L-0.25 16.48C2.51 16.35 2.87 14.53 2.87 12.18ZM10.89 10.07C10.89 8.05 9.62 6.41 7.50 6.41C5.42 6.41 4.12 8.06 4.12 10.07C4.12 12.08 5.39 13.72 7.50 13.72C9.62 13.72 10.89 12.08 10.89 10.07ZM9.04 10.08C9.04 11.10 8.82 12.60 7.50 12.60C6.23 12.60 5.96 11.06 5.96 10.08C5.96 9.10 6.23 7.56 7.50 7.56C8.82 7.56 9.04 9.06 9.04 10.08ZM16.76 11.38C16.76 8.97 13.69 9.58 13.69 8.29C13.69 7.76 14.18 7.55 14.64 7.55C15.12 7.55 15.65 7.73 16.03 8.02L16.62 6.85C16.03 6.55 15.20 6.41 14.56 6.41C13.24 6.41 11.87 7.11 11.87 8.60C11.87 10.89 14.94 10.25 14.94 11.66C14.94 12.28 14.45 12.56 13.89 12.56C13.31 12.56 12.78 12.28 12.31 12.00L11.70 13.15C12.36 13.51 13.29 13.75 14.03 13.75C15.41 13.75 16.76 12.88 16.76 11.38ZM22.78 11.38C22.78 8.97 19.71 9.58 19.71 8.29C19.71 7.76 20.20 7.55 20.66 7.55C21.14 7.55 21.67 7.73 22.05 8.02L22.64 6.85C22.05 6.55 21.22 6.41 20.58 6.41C19.26 6.41 17.89 7.11 17.89 8.60C17.89 10.89 20.96 10.25 20.96 11.66C20.96 12.28 20.47 12.56 19.91 12.56C19.33 12.56 18.80 12.28 18.33 12.00L17.72 13.15C18.38 13.51 19.31 13.75 20.05 13.75C21.43 13.75 22.78 12.88 22.78 11.38ZM31.54 4.69L34.43 4.69L34.43 3.30L26.70 3.30L26.70 4.69L29.54 4.69L29.54 13.55L31.54 13.55ZM40.46 10.07C40.46 8.05 39.19 6.41 37.07 6.41C34.99 6.41 33.68 8.06 33.68 10.07C33.68 12.08 34.96 13.72 37.07 13.72C39.19 13.72 40.46 12.08 40.46 10.07ZM38.61 10.08C38.61 11.10 38.39 12.60 37.07 12.60C35.80 12.60 35.53 11.06 35.53 10.08C35.53 9.10 35.80 7.56 37.07 7.56C38.39 7.56 38.61 9.06 38.61 10.08ZM47.96 10.07C47.96 8.05 46.69 6.41 44.58 6.41C42.49 6.41 41.19 8.06 41.19 10.07C41.19 12.08 42.46 13.72 44.58 13.72C46.69 13.72 47.96 12.08 47.96 10.07ZM46.12 10.08C46.12 11.10 45.89 12.60 44.58 12.60C43.30 12.60 43.04 11.06 43.04 10.08C43.04 9.10 43.30 7.56 44.58 7.56C45.89 7.56 46.12 9.06 46.12 10.08ZM49.21 13.55L50.92 13.55L50.92 2.79L49.06 2.79C49.07 2.86 49.21 3.51 49.21 3.54ZM56.99 11.38C56.99 8.97 53.93 9.58 53.93 8.29C53.93 7.76 54.42 7.55 54.88 7.55C55.36 7.55 55.89 7.73 56.27 8.02L56.85 6.85C56.27 6.55 55.44 6.41 54.80 6.41C53.48 6.41 52.11 7.11 52.11 8.60C52.11 10.89 55.17 10.25 55.17 11.66C55.17 12.28 54.68 12.56 54.12 12.56C53.55 12.56 53.02 12.28 52.54 12.00L51.94 13.15C52.60 13.51 53.52 13.75 54.26 13.75C55.65 13.75 56.99 12.88 56.99 11.38Z"></path></g><g data-v-423bf9ae="" id="fdc220ce-09cc-42a3-8b01-c83927dc7d4a" transform="matrix(1.0000158521864149,0,0,1.0000158521864149,76.61160325844071,-4.001505974270991)" stroke="none" fill="black"><path d="M72.188 56.484a8.62 8.62 0 0 0-5.4-2.472c-.428-.033-1.23-.175-1.781-.73a2.46 2.46 0 0 1-.721-1.627 8.35 8.35 0 0 0-1.112-3.761l3.337-3.333a4.67 4.67 0 0 1 4.452-1.225c6.151 1.575 12.952-.416 17.777-5.243 4.144-4.146 6.016-9.702 5.619-15.124L78.573 31.64l-7.182-4.355.179-8.4 16.349-8.98c-7.614-6.787-19.291-6.531-26.596.773-4.664 4.665-6.451 11.117-5.364 17.152.253 1.423-.099 2.911-1.283 4.094l-8.485 8.482-13.906-13.458-.088-.088c-.292-1.408-.904-3.532-2.895-5.267-2.114-1.842-5.642-4.695-7.887-6.28-2.736-1.934-6.016-1.674-8.347.659l-1.61 1.61c-2.333 2.333-2.59 5.608-.659 8.344 1.587 2.244 4.439 5.775 6.281 7.89 1.725 1.982 3.843 2.597 5.251 2.888l.016.019.087.073 13.459 13.908-27.77 27.774a8.651 8.651 0 0 0 12.234 12.234l23.027-23.023a8.3 8.3 0 0 0 3.755 1.109c.619.03 1.198.286 1.63.722.555.553.698 1.354.73 1.783a8.62 8.62 0 0 0 2.473 5.397l14.727 14.728c4.763 4.765 12.515 4.765 17.282 0l2.934-2.935c4.762-4.764 4.762-12.516 0-17.28zm-46.269-23.06s-.958-1.151-1.827-1.319c-1.036-.202-2.388-.364-3.355-1.473-1.758-2.02-4.489-5.395-5.977-7.501-.626-.885-.49-1.499.128-2.118l1.609-1.609c.619-.62 1.234-.755 2.118-.128 2.105 1.487 5.484 4.217 7.501 5.975 1.112.967 1.273 2.321 1.476 3.356.166.867 1.317 1.825 1.317 1.825l13.85 13.405 4.695 4.541-3.588 3.591-4.546-4.693zm57.567 51.639-2.934 2.935a7.37 7.37 0 0 1-10.421 0L55.404 73.269c-.647-.643-1-1.516-1.071-2.357-.14-1.734-.805-3.497-2.135-4.824a7.3 7.3 0 0 0-4.822-2.136 2 2 0 0 1-.237-.023 3 3 0 0 1-.265-.044l-.037-.007a4 4 0 0 1-.242-.059l-.06-.018a4 4 0 0 1-.214-.074q-.04-.014-.083-.032c-.062-.027-.131-.054-.193-.084l-.099-.052a2 2 0 0 1-.171-.091c-.039-.024-.084-.05-.124-.077-.043-.03-.094-.057-.138-.089a4 4 0 0 1-.15-.117l-.103-.078a3.685 3.685 0 0 1-.242-5.432l8.146-8.146a3.684 3.684 0 0 1 5.432.244q.039.049.079.099c.039.051.08.101.114.154q.046.066.092.138.038.06.074.126c.037.053.064.11.092.165q.03.05.051.103.048.096.085.193l.035.082c.024.071.051.143.072.216q.01.031.02.061c.019.078.044.159.059.239q.002.019.008.036.027.131.039.264.02.118.029.241a7.28 7.28 0 0 0 2.133 4.823c1.324 1.326 3.089 1.994 4.822 2.134a3.82 3.82 0 0 1 2.36 1.067l14.727 14.727c2.873 2.878 2.877 7.545-.001 10.422"></path></g></svg>