<svg data-v-fde0c5aa="" xmlns="http://www.w3.org/2000/svg" viewBox="0 0 300 300" class="font"><defs data-v-fde0c5aa=""></defs><rect data-v-fde0c5aa="" fill="transparent" x="0" y="0" width="300px" height="300px" class="logo-background-square"></rect><defs data-v-fde0c5aa=""><linearGradient data-v-fde0c5aa="" gradientTransform="rotate(25)" id="72afacaa-03d3-4a9c-a312-b8752188ec85" x1="0%" y1="0%" x2="100%" y2="0%"><stop data-v-fde0c5aa="" offset="0%" stop-color="#67635D" stop-opacity="1"></stop><stop data-v-fde0c5aa="" offset="100%" stop-color="#FFD6AD" stop-opacity="1"></stop></linearGradient></defs><g data-v-fde0c5aa="" id="d8e285e6-9bcd-40b6-b45d-fa9d53c9b9a2" fill="url(#72afacaa-03d3-4a9c-a312-b8752188ec85)" transform="matrix(3.8247565759590643,0,0,3.8247565759590643,42.02712087583114,113.14847133900318)"><path d="M2.87 12.18L2.87 3.30L0.74 3.30C0.76 3.37 0.94 4.13 0.94 4.16L0.94 12.89C0.94 14.03 0.83 15.22-0.53 15.39L-0.25 16.48C2.51 16.35 2.87 14.53 2.87 12.18ZM10.89 10.07C10.89 8.05 9.62 6.41 7.50 6.41C5.42 6.41 4.12 8.06 4.12 10.07C4.12 12.08 5.39 13.72 7.50 13.72C9.62 13.72 10.89 12.08 10.89 10.07ZM9.04 10.08C9.04 11.10 8.82 12.60 7.50 12.60C6.23 12.60 5.96 11.06 5.96 10.08C5.96 9.10 6.23 7.56 7.50 7.56C8.82 7.56 9.04 9.06 9.04 10.08ZM16.76 11.38C16.76 8.97 13.69 9.58 13.69 8.29C13.69 7.76 14.18 7.55 14.64 7.55C15.12 7.55 15.65 7.73 16.03 8.02L16.62 6.85C16.03 6.55 15.20 6.41 14.56 6.41C13.24 6.41 11.87 7.11 11.87 8.60C11.87 10.89 14.94 10.25 14.94 11.66C14.94 12.28 14.45 12.56 13.89 12.56C13.31 12.56 12.78 12.28 12.31 12.00L11.70 13.15C12.36 13.51 13.29 13.75 14.03 13.75C15.41 13.75 16.76 12.88 16.76 11.38ZM22.78 11.38C22.78 8.97 19.71 9.58 19.71 8.29C19.71 7.76 20.20 7.55 20.66 7.55C21.14 7.55 21.67 7.73 22.05 8.02L22.64 6.85C22.05 6.55 21.22 6.41 20.58 6.41C19.26 6.41 17.89 7.11 17.89 8.60C17.89 10.89 20.96 10.25 20.96 11.66C20.96 12.28 20.47 12.56 19.91 12.56C19.33 12.56 18.80 12.28 18.33 12.00L17.72 13.15C18.38 13.51 19.31 13.75 20.05 13.75C21.43 13.75 22.78 12.88 22.78 11.38ZM31.54 4.69L34.43 4.69L34.43 3.30L26.70 3.30L26.70 4.69L29.54 4.69L29.54 13.55L31.54 13.55ZM40.46 10.07C40.46 8.05 39.19 6.41 37.07 6.41C34.99 6.41 33.68 8.06 33.68 10.07C33.68 12.08 34.96 13.72 37.07 13.72C39.19 13.72 40.46 12.08 40.46 10.07ZM38.61 10.08C38.61 11.10 38.39 12.60 37.07 12.60C35.80 12.60 35.53 11.06 35.53 10.08C35.53 9.10 35.80 7.56 37.07 7.56C38.39 7.56 38.61 9.06 38.61 10.08ZM47.96 10.07C47.96 8.05 46.69 6.41 44.58 6.41C42.49 6.41 41.19 8.06 41.19 10.07C41.19 12.08 42.46 13.72 44.58 13.72C46.69 13.72 47.96 12.08 47.96 10.07ZM46.12 10.08C46.12 11.10 45.89 12.60 44.58 12.60C43.30 12.60 43.04 11.06 43.04 10.08C43.04 9.10 43.30 7.56 44.58 7.56C45.89 7.56 46.12 9.06 46.12 10.08ZM49.21 13.55L50.92 13.55L50.92 2.79L49.06 2.79C49.07 2.86 49.21 3.51 49.21 3.54ZM56.99 11.38C56.99 8.97 53.93 9.58 53.93 8.29C53.93 7.76 54.42 7.55 54.88 7.55C55.36 7.55 55.89 7.73 56.27 8.02L56.85 6.85C56.27 6.55 55.44 6.41 54.80 6.41C53.48 6.41 52.11 7.11 52.11 8.60C52.11 10.89 55.17 10.25 55.17 11.66C55.17 12.28 54.68 12.56 54.12 12.56C53.55 12.56 53.02 12.28 52.54 12.00L51.94 13.15C52.60 13.51 53.52 13.75 54.26 13.75C55.65 13.75 56.99 12.88 56.99 11.38Z"></path></g></svg>